<svg width="150" height="150" viewBox="0 0 150 150" fill="none" xmlns="http://www.w3.org/2000/svg">
<path d="M25 125V25H125V125H25ZM31.25 118.75H118.75V31.25H31.25V118.75Z" fill="#003300"/>
<path d="M65.9092 38.6365H84.091V43.1819H88.6365V47.7274H93.1819V65.9092H88.6365V70.4547H84.091V75.0001H65.9092V70.4547H61.3637V65.9092H56.8183V47.7274H61.3637V43.1819H65.9092V38.6365ZM70.4547 61.3637V65.9092H79.5456V61.3637H84.091V52.2728H79.5456V47.7274H70.4547V52.2728H65.9092V61.3637H70.4547ZM56.8183 79.5456H93.1819V84.091H102.273V88.6365H106.818V93.1819H111.364V111.364H38.6365V93.1819H43.1819V88.6365H47.7274V84.091H56.8183V79.5456ZM52.2728 97.7274H47.7274V102.273H102.273V97.7274H97.7274V93.1819H88.6365V88.6365H61.3637V93.1819H52.2728V97.7274Z" fill="#003300"/>
</svg>
